<?xml version="1.0" encoding="utf-8"?>
<svg width="48px" height="48px" viewBox="0 0 48 48" version="1.1" xmlns:xlink="http://www.w3.org/1999/xlink" xmlns="http://www.w3.org/2000/svg">
  <defs>
    <path d="M48 0L48 0L48 48L0 48L0 0L48 0Z" id="path_1" />
    <clipPath id="clip_1">
      <use xlink:href="#path_1" clip-rule="evenodd" fill-rule="evenodd" />
    </clipPath>
  </defs>
  <g id="iPad App">
    <path d="M48 0L48 0L48 48L0 48L0 0L48 0Z" id="iPad-App" fill="none" stroke="none" />
    <g id="编组" transform="translate(0 3.5)" clip-path="url(#clip_1)">
      <g id="编组">
        <path d="M38.0689 37.9066L47.1958 23.0874C47.7319 22.2168 48 21.271 48 20.25C48 19.229 47.7319 18.2832 47.1958 17.4126L38.0689 2.59344C37.5727 1.78783 36.9104 1.15419 36.0818 0.692512C35.2532 0.230837 34.3641 0 33.4145 0L14.5856 3.57628e-06C13.6359 3.57628e-06 12.7468 0.230841 11.9182 0.692515C11.0897 1.15419 10.4273 1.78784 9.93114 2.59345L0.80426 17.4126C0.268086 18.2832 0 19.229 0 20.25C0 21.271 0.268086 22.2168 0.80426 23.0874L9.93114 37.9066C10.4273 38.7122 11.0897 39.3458 11.9182 39.8075C12.7468 40.2692 13.6359 40.5 14.5856 40.5L33.4145 40.5C34.3641 40.5 35.2532 40.2692 36.0818 39.8075C36.9104 39.3458 37.5727 38.7122 38.0689 37.9066L38.0689 37.9066Z" id="矢量图" fill="#000000" fill-rule="evenodd" stroke="none" />
      </g>
      <path d="M18.3139 13.4616L29.7991 13.4616L29.7748 16.0709L21.1975 16.0709L21.1975 19.3476L28.6645 19.3476L28.6645 21.9369L21.1975 21.9369L21.1975 27.4492L18.3139 27.4492L18.3139 13.4616Z" id="小路" fill="#FFFFFF" stroke="none" />
    </g>
  </g>
</svg>